<?xml version="1.0" encoding="UTF-8" standalone="no" ?>
<!DOCTYPE svg PUBLIC "-//W3C//DTD SVG 1.1//EN" "http://www.w3.org/Graphics/SVG/1.1/DTD/svg11.dtd">
<svg xmlns="http://www.w3.org/2000/svg" xmlns:xlink="http://www.w3.org/1999/xlink" version="1.1" width="1080" height="1080" viewBox="0 0 1080 1080" xml:space="preserve">
<desc>Created with Fabric.js 5.2.4</desc>
<defs>
</defs>
<g transform="matrix(1 0 0 1 540 540)" id="e298ec9d-cae7-40dc-814d-c8d62654ac29"  >
<rect style="stroke: none; stroke-width: 1; stroke-dasharray: none; stroke-linecap: butt; stroke-dashoffset: 0; stroke-linejoin: miter; stroke-miterlimit: 4; fill: rgb(255,255,255); fill-rule: nonzero; opacity: 1; visibility: hidden;" vector-effect="non-scaling-stroke"  x="-540" y="-540" rx="0" ry="0" width="1080" height="1080" />
</g>
<g transform="matrix(1 0 0 1 540 540)" id="d71ac28d-c5cb-495f-a3b1-46ca1e58a6a3"  >
</g>
<g transform="matrix(1.19 0 0 1.18 540 540)" id="1eb3a618-a429-4c9a-84ca-b8342f54805a"  >
<path style="stroke: rgb(0,0,0); stroke-width: 0; stroke-dasharray: none; stroke-linecap: butt; stroke-dashoffset: 0; stroke-linejoin: miter; stroke-miterlimit: 4; fill: rgb(245,239,224); fill-rule: nonzero; opacity: 1;" vector-effect="non-scaling-stroke"  transform=" translate(-511.55, -512)" d="M 511.6 76.3 C 264.3 76.2 64 276.4 64 523.5 C 64 718.9 189.3 885 363.8 946 C 387.3 951.9 383.7 935.2 383.7 923.8 L 383.7 846.3 C 248 862.1999999999999 242.5 772.4 233.39999999999998 757.4 C 215 726 171.5 718 184.5 703 C 215.4 687.1 246.9 707 283.4 760.9 C 309.79999999999995 800 361.29999999999995 793.4 387.4 786.9 C 393.09999999999997 763.4 405.29999999999995 742.4 422.09999999999997 726.1 C 281.5 700.9 222.89999999999998 615.1 222.89999999999998 513.1 C 222.89999999999998 463.6 239.2 418.1 271.2 381.40000000000003 C 250.79999999999998 320.90000000000003 273.09999999999997 269.1 276.09999999999997 261.40000000000003 C 334.2 256.20000000000005 394.59999999999997 303.00000000000006 399.29999999999995 306.70000000000005 C 432.29999999999995 297.80000000000007 469.99999999999994 293.1 512.1999999999999 293.1 C 554.5999999999999 293.1 592.4 298 625.6999999999999 307 C 636.9999999999999 298.4 692.9999999999999 258.2 746.9999999999999 263.1 C 749.8999999999999 270.8 771.6999999999999 321.40000000000003 752.4999999999999 381.1 C 784.8999999999999 417.90000000000003 801.3999999999999 463.8 801.3999999999999 513.4000000000001 C 801.3999999999999 615.6000000000001 742.3999999999999 701.5000000000001 601.3999999999999 726.3000000000001 C 625.7962299701394 750.2920657099249 639.5252334111825 783.0831237974558 639.4999999999999 817.3000000000001 L 639.4999999999999 929.8000000000001 C 640.2999999999998 938.8000000000001 639.4999999999999 947.7 654.4999999999999 947.7 C 831.5999999999999 888 959.0999999999999 720.7 959.0999999999999 523.6 C 959.0999999999999 276.40000000000003 758.6999999999999 76.30000000000001 511.5999999999999 76.30000000000001 z" stroke-linecap="round" />
</g>
</svg>