<?xml version="1.0" encoding="UTF-8" standalone="no" ?>
<!DOCTYPE svg PUBLIC "-//W3C//DTD SVG 1.1//EN" "http://www.w3.org/Graphics/SVG/1.1/DTD/svg11.dtd">
<svg xmlns="http://www.w3.org/2000/svg" xmlns:xlink="http://www.w3.org/1999/xlink" version="1.1" width="1080" height="1080" viewBox="0 0 1080 1080" xml:space="preserve">
<desc>Created with Fabric.js 5.2.4</desc>
<defs>
</defs>
<rect x="0" y="0" width="100%" height="100%" fill="transparent"></rect>
<g transform="matrix(1 0 0 1 540 540)" id="0517935a-652c-4d3f-907b-ed031cd98f30"  >
<rect style="stroke: none; stroke-width: 1; stroke-dasharray: none; stroke-linecap: butt; stroke-dashoffset: 0; stroke-linejoin: miter; stroke-miterlimit: 4; fill: rgb(255,255,255); fill-rule: nonzero; opacity: 1; visibility: hidden;" vector-effect="non-scaling-stroke"  x="-540" y="-540" rx="0" ry="0" width="1080" height="1080" />
</g>
<g transform="matrix(1 0 0 1 540 540)" id="a2432fa8-23f3-4ab1-afc2-193379b15965"  >
</g>
<g transform="matrix(40.18 0 0 40.18 540 540)" id="5a30dbad-f98d-473d-bd03-c040a8dddf73"  >
<path style="stroke: rgb(0,0,0); stroke-width: 0; stroke-dasharray: none; stroke-linecap: butt; stroke-dashoffset: 0; stroke-linejoin: miter; stroke-miterlimit: 4; fill: rgb(245,239,224); fill-rule: nonzero; opacity: 1;" vector-effect="non-scaling-stroke"  transform=" translate(-24, -24)" d="M 34.95495 10.525 L 13.044949999999996 10.525 C 11.655049999999996 10.525 10.524949999999997 11.655000000000001 10.524949999999997 13.0449 L 10.524949999999997 34.9549 C 10.524949999999997 36.345 11.654949999999996 37.475 13.044949999999996 37.475 L 34.95495 37.475 C 36.34495 37.475 37.475049999999996 36.345 37.475049999999996 34.9549 L 37.475049999999996 13.044900000000002 C 37.47505 11.655 36.34505 10.525 34.95495 10.525 z M 19.41505 31.3349 C 18.46505 31.3249 17.50495 31.3249 16.54495 31.3349 C 16.36495 31.3349 16.31495 31.285 16.31495 31.095000000000002 L 16.31495 20.9549 C 16.31495 20.764899999999997 16.37495 20.715 16.554949999999998 20.715 C 17.504949999999997 20.725 18.464949999999998 20.725 19.415049999999997 20.715 C 19.60495 20.715 19.655049999999996 20.775 19.644949999999998 20.9549 L 19.644949999999998 26.034999999999997 C 19.644949999999998 27.724999999999998 19.644949999999998 29.414899999999996 19.65505 31.104899999999997 C 19.65505 31.285 19.59505 31.3349 19.41505 31.3349 z M 17.98495 19.3549 C 16.924950000000003 19.364900000000002 16.05495 18.475 16.05495 17.4249 C 16.064950000000003 16.4149 16.834950000000003 15.504900000000001 17.975050000000003 15.494900000000001 C 19.05495 15.484900000000001 19.915050000000004 16.3049 19.915050000000004 17.4249 C 19.91505 18.525 19.07495 19.345 17.98495 19.3549 z M 31.64495 31.3349 L 28.834950000000003 31.3349 C 28.604950000000002 31.3349 28.595050000000004 31.3249 28.595050000000004 31.0849 L 28.595050000000004 25.9449 C 28.595050000000004 25.465 28.584950000000003 24.9849 28.444950000000006 24.5149 C 28.225050000000007 23.785 27.754950000000004 23.4349 26.984950000000005 23.4149 C 26.444950000000006 23.404899999999998 25.934950000000004 23.5049 25.554950000000005 23.9249 C 25.244950000000006 24.2549 25.114950000000004 24.6549 25.054950000000005 25.095000000000002 C 25.014950000000006 25.484900000000003 24.984950000000005 25.884900000000002 24.984950000000005 26.285000000000004 C 24.975050000000007 27.894900000000003 24.975050000000007 29.504900000000003 24.984950000000005 31.104900000000004 C 24.984950000000005 31.285000000000004 24.934950000000004 31.334900000000005 24.764950000000006 31.334900000000005 C 23.804950000000005 31.324900000000003 22.835050000000006 31.324900000000003 21.874950000000005 31.334900000000005 C 21.705050000000007 31.334900000000005 21.645050000000005 31.285000000000004 21.645050000000005 31.104900000000004 C 21.655050000000006 27.725000000000005 21.655050000000006 24.334900000000005 21.645050000000005 20.944900000000004 C 21.645050000000005 20.764900000000004 21.715050000000005 20.715000000000003 21.874950000000005 20.715000000000003 C 22.794950000000007 20.725000000000005 23.715050000000005 20.725000000000005 24.634950000000003 20.715000000000003 C 24.814950000000003 20.715000000000003 24.874950000000002 20.785000000000004 24.864950000000004 20.954900000000002 C 24.854950000000002 21.324900000000003 24.864950000000004 21.704900000000002 24.864950000000004 22.074900000000003 C 25.384950000000003 21.304900000000004 26.085050000000003 20.8149 26.965050000000005 20.595000000000002 C 27.984950000000005 20.345000000000002 28.994950000000006 20.4249 29.955050000000007 20.845000000000002 C 30.884950000000007 21.2449 31.384950000000007 22.004900000000003 31.64505000000001 22.944900000000004 C 31.82495000000001 23.554900000000004 31.90505000000001 24.184900000000003 31.915050000000008 24.824900000000003 C 31.924950000000006 26.894900000000003 31.934950000000008 28.965000000000003 31.94495000000001 31.044900000000002 C 31.94495 31.3349 31.94495 31.3349 31.64495 31.3349 z" stroke-linecap="round" />
</g>
</svg>